<mxfile host="app.diagrams.net" modified="2023-10-29T14:37:13.528Z" agent="Mozilla/5.0 (Windows NT 10.0; Win64; x64) AppleWebKit/537.36 (KHTML, like Gecko) Chrome/118.0.0.0 Safari/537.36 Edg/118.0.2088.69" etag="keWfLvZvRkUHSdO30pqu" version="22.0.8" type="github">
  <diagram name="第 1 页" id="zIe4UrTv8okEE7L5FqvO">
    <mxGraphModel dx="655" dy="383" grid="1" gridSize="10" guides="1" tooltips="1" connect="1" arrows="1" fold="1" page="1" pageScale="1" pageWidth="160000" pageHeight="160000" math="0" shadow="0">
      <root>
        <mxCell id="0" />
        <mxCell id="1" parent="0" />
        <mxCell id="KUMDIYQyfbs7Eg68jW0B-5" value="社区审核记录" style="swimlane;fontStyle=1;align=center;verticalAlign=top;childLayout=stackLayout;horizontal=1;startSize=26;horizontalStack=0;resizeParent=1;resizeParentMax=0;resizeLast=0;collapsible=1;marginBottom=0;whiteSpace=wrap;html=1;" vertex="1" parent="1">
          <mxGeometry x="450" y="250" width="170" height="130" as="geometry" />
        </mxCell>
        <mxCell id="KUMDIYQyfbs7Eg68jW0B-6" value="+ 受审核人员姓名: string&lt;br&gt;+记录编号：int&lt;br&gt;+审核内容：string" style="text;strokeColor=none;fillColor=none;align=left;verticalAlign=top;spacingLeft=4;spacingRight=4;overflow=hidden;rotatable=0;points=[[0,0.5],[1,0.5]];portConstraint=eastwest;whiteSpace=wrap;html=1;" vertex="1" parent="KUMDIYQyfbs7Eg68jW0B-5">
          <mxGeometry y="26" width="170" height="64" as="geometry" />
        </mxCell>
        <mxCell id="KUMDIYQyfbs7Eg68jW0B-7" value="" style="line;strokeWidth=1;fillColor=none;align=left;verticalAlign=middle;spacingTop=-1;spacingLeft=3;spacingRight=3;rotatable=0;labelPosition=right;points=[];portConstraint=eastwest;strokeColor=inherit;" vertex="1" parent="KUMDIYQyfbs7Eg68jW0B-5">
          <mxGeometry y="90" width="170" height="40" as="geometry" />
        </mxCell>
        <mxCell id="KUMDIYQyfbs7Eg68jW0B-9" value="课程信息" style="swimlane;fontStyle=1;align=center;verticalAlign=top;childLayout=stackLayout;horizontal=1;startSize=26;horizontalStack=0;resizeParent=1;resizeParentMax=0;resizeLast=0;collapsible=1;marginBottom=0;whiteSpace=wrap;html=1;" vertex="1" parent="1">
          <mxGeometry x="650" y="250" width="170" height="160" as="geometry" />
        </mxCell>
        <mxCell id="KUMDIYQyfbs7Eg68jW0B-10" value="+ 课程名: string&lt;br&gt;+课号：string&lt;br&gt;+授课教师：string&lt;br&gt;+上课时间：string&lt;br&gt;+上课地点：string&lt;br&gt;+上课周次：string" style="text;strokeColor=none;fillColor=none;align=left;verticalAlign=top;spacingLeft=4;spacingRight=4;overflow=hidden;rotatable=0;points=[[0,0.5],[1,0.5]];portConstraint=eastwest;whiteSpace=wrap;html=1;" vertex="1" parent="KUMDIYQyfbs7Eg68jW0B-9">
          <mxGeometry y="26" width="170" height="94" as="geometry" />
        </mxCell>
        <mxCell id="KUMDIYQyfbs7Eg68jW0B-11" value="" style="line;strokeWidth=1;fillColor=none;align=left;verticalAlign=middle;spacingTop=-1;spacingLeft=3;spacingRight=3;rotatable=0;labelPosition=right;points=[];portConstraint=eastwest;strokeColor=inherit;" vertex="1" parent="KUMDIYQyfbs7Eg68jW0B-9">
          <mxGeometry y="120" width="170" height="40" as="geometry" />
        </mxCell>
        <mxCell id="KUMDIYQyfbs7Eg68jW0B-13" value="请假记录" style="swimlane;fontStyle=1;align=center;verticalAlign=top;childLayout=stackLayout;horizontal=1;startSize=26;horizontalStack=0;resizeParent=1;resizeParentMax=0;resizeLast=0;collapsible=1;marginBottom=0;whiteSpace=wrap;html=1;" vertex="1" parent="1">
          <mxGeometry x="850" y="250" width="160" height="160" as="geometry" />
        </mxCell>
        <mxCell id="KUMDIYQyfbs7Eg68jW0B-14" value="+ 请假人姓名: string&lt;br&gt;+请假日期：string&lt;br&gt;+请假内容：string&lt;br&gt;+审核教师姓名：string" style="text;strokeColor=none;fillColor=none;align=left;verticalAlign=top;spacingLeft=4;spacingRight=4;overflow=hidden;rotatable=0;points=[[0,0.5],[1,0.5]];portConstraint=eastwest;whiteSpace=wrap;html=1;" vertex="1" parent="KUMDIYQyfbs7Eg68jW0B-13">
          <mxGeometry y="26" width="160" height="84" as="geometry" />
        </mxCell>
        <mxCell id="KUMDIYQyfbs7Eg68jW0B-15" value="" style="line;strokeWidth=1;fillColor=none;align=left;verticalAlign=middle;spacingTop=-1;spacingLeft=3;spacingRight=3;rotatable=0;labelPosition=right;points=[];portConstraint=eastwest;strokeColor=inherit;" vertex="1" parent="KUMDIYQyfbs7Eg68jW0B-13">
          <mxGeometry y="110" width="160" height="50" as="geometry" />
        </mxCell>
      </root>
    </mxGraphModel>
  </diagram>
</mxfile>
